# xmcd
#
# Track frame offsets:
#	150
#	19272
#	42542
#	59471
#	79293
#	98898
#	127823
#	155984
#	174163
#	193762
#	224332
#	243980
#	262078
#
# Disc length: 3964 seconds
# Revision: 0
# Processed by: cddbd v1.5.2PL0 Copyright (c) Steve Scherf et al.
# Submitted via: dBpowerAMP V12.0
#
DISCID=bc0f7a0d
DTITLE=Mike Wheeler Band - Turn Up !!
DYEAR=2016
DGENRE=Blues
TTITLE0=Sweet Girl
TTITLE1=You Won't Do Right
TTITLE2=Yeah!
TTITLE3=Brand New Cadillac
TTITLE4=Talking To Myself
TTITLE5=Turn Up !!
TTITLE6=Nothing Lasts Forever
TTITLE7=I Can't Do That
TTITLE8=Living My Dream
TTITLE9=A Blind Man Can See
TTITLE10=That's What Love Will Make You Do
TTITLE11=I'm Hooked
TTITLE12=Sad State Of The World
EXTD=
EXTT0=
EXTT1=
EXTT2=
EXTT3=
EXTT4=
EXTT5=
EXTT6=
EXTT7=
EXTT8=
EXTT9=
EXTT10=
EXTT11=
EXTT12=
PLAYORDER=
